<svg width="258" height="258" viewBox="0 0 258 258" fill="none" xmlns="http://www.w3.org/2000/svg">
<g filter="url(#filter0_d_63_40)">
<circle cx="125" cy="125" r="125" fill="#0D9F3E"/>
<circle cx="125" cy="125" r="124.5" stroke="black"/>
</g>
<path d="M78.7814 120.969C53.7814 179.622 150.781 220.122 96.7813 205.122C67.7813 197.066 28.2813 157.622 32.2813 120.969C32.2813 93.3545 51.1671 64.9687 78.7814 64.9687C94.2814 75.9687 90.8341 92.6914 78.7814 120.969Z" fill="white"/>
<path d="M111.281 59.6793C111.281 69.7291 101.109 82.122 90.8528 82.122C80.5961 82.122 72.2813 73.975 72.2813 63.9252C72.2813 53.8755 85.5484 45.122 95.8052 45.122C106.062 45.122 111.281 49.6296 111.281 59.6793Z" fill="white"/>
<path d="M93.0284 42.9297C96.1113 48.537 96.0836 44.2423 90.7768 50.6037C85.4699 56.965 81.9455 58.8223 79.509 51.622C76.7813 45.622 78.7813 42.622 81.7813 40.622C83.2813 40.122 88.1113 37.037 93.0284 42.9297Z" fill="white"/>
<path d="M105.145 112.32C112.281 129.122 121.281 129.622 117.281 131.122C116.281 131.122 72.7813 112.32 74.974 96.4788C68.3218 82.2135 71.2146 81.0821 74.9741 72.4788C79.2813 62.6219 88.6197 73.411 105.145 112.32Z" fill="white"/>
<path d="M82.8141 109.744C86.6564 108.791 90.4297 110.673 91.2421 113.947C91.5192 115.064 91.4144 116.198 91.0053 117.247C89.3521 115.792 86.8457 115.166 84.3149 115.793C81.7839 116.421 79.8602 118.147 79.0788 120.206C78.2274 119.47 77.6052 118.516 77.328 117.399C76.5157 114.125 78.9718 110.698 82.8141 109.744Z" fill="white"/>
<path d="M164.307 113.884C190.464 176.623 88.9747 219.944 145.474 203.899C175.816 195.283 217.144 153.09 212.959 113.884C212.959 84.346 193.199 53.9829 164.307 53.9829C148.09 65.7492 151.696 83.6367 164.307 113.884Z" fill="white"/>
<path d="M130.303 48.325C130.303 59.0749 140.945 72.331 151.677 72.331C162.408 72.331 171.108 63.6166 171.108 52.8667C171.108 42.1169 157.227 32.7536 146.495 32.7536C137.821 34.4962 132.821 36.9962 130.303 48.325Z" fill="white"/>
<path d="M136.723 104.633C129.256 122.605 111.636 129.892 115.821 131.496C124.321 134.755 170.585 104.633 168.29 87.688C175.25 72.4289 172.224 71.2188 168.29 62.0161C163.784 51.4726 154.013 63.0132 136.723 104.633Z" fill="white"/>
<path d="M160.522 104.546C164.089 105.34 166.451 108.365 165.797 111.302C165.574 112.304 165.028 113.166 164.265 113.836C163.486 112.008 161.664 110.496 159.314 109.973C156.964 109.45 154.672 110.046 153.191 111.371C152.784 110.441 152.656 109.428 152.879 108.426C153.533 105.489 156.955 103.752 160.522 104.546Z" fill="white"/>
<defs>
<filter id="filter0_d_63_40" x="0" y="0" width="258" height="258" filterUnits="userSpaceOnUse" color-interpolation-filters="sRGB">
<feFlood flood-opacity="0" result="BackgroundImageFix"/>
<feColorMatrix in="SourceAlpha" type="matrix" values="0 0 0 0 0 0 0 0 0 0 0 0 0 0 0 0 0 0 127 0" result="hardAlpha"/>
<feOffset dx="4" dy="4"/>
<feGaussianBlur stdDeviation="2"/>
<feComposite in2="hardAlpha" operator="out"/>
<feColorMatrix type="matrix" values="0 0 0 0 0 0 0 0 0 0 0 0 0 0 0 0 0 0 0.25 0"/>
<feBlend mode="normal" in2="BackgroundImageFix" result="effect1_dropShadow_63_40"/>
<feBlend mode="normal" in="SourceGraphic" in2="effect1_dropShadow_63_40" result="shape"/>
</filter>
</defs>
</svg>
