<svg width="929" height="350" viewBox="0 0 929 350" fill="none" xmlns="http://www.w3.org/2000/svg">
<g filter="url(#filter0_d_63_39)">
<ellipse cx="186.5" cy="157" rx="124.5" ry="125" fill="#0D9F3E"/>
<path d="M186.5 32.5C254.981 32.5 310.5 88.2387 310.5 157C310.5 225.761 254.981 281.5 186.5 281.5C118.019 281.5 62.5 225.761 62.5 157C62.5 88.2387 118.019 32.5 186.5 32.5Z" stroke="black"/>
</g>
<path d="M140.39 152.969C115.46 211.622 212.19 252.122 158.34 237.122C129.421 229.066 90.0306 189.622 94.0195 152.969C94.0195 125.355 112.853 96.9688 140.39 96.9688C155.847 107.969 152.41 124.691 140.39 152.969Z" fill="white"/>
<path d="M172.8 91.6793C172.8 101.729 162.656 114.122 152.428 114.122C142.2 114.122 133.908 105.975 133.908 95.9252C133.908 85.8755 147.139 77.1219 157.367 77.1219C167.595 77.1219 172.8 81.6296 172.8 91.6793Z" fill="white"/>
<path d="M154.598 74.9297C157.672 80.537 157.645 76.2423 152.352 82.6037C147.06 88.965 143.546 90.8223 141.116 83.622C138.396 77.622 140.39 74.622 143.382 72.622C144.878 72.122 149.694 69.037 154.598 74.9297Z" fill="white"/>
<path d="M166.681 144.32C173.797 161.122 182.772 161.622 178.783 163.122C177.786 163.122 134.407 144.32 136.594 128.479C129.96 114.213 132.845 113.082 136.594 104.479C140.889 94.6219 150.201 105.411 166.681 144.32Z" fill="white"/>
<path d="M144.412 141.744C148.244 140.791 152.007 142.673 152.817 145.947C153.093 147.064 152.989 148.199 152.581 149.247C150.932 147.792 148.433 147.166 145.909 147.793C143.385 148.421 141.467 150.147 140.688 152.206C139.838 151.47 139.218 150.516 138.941 149.399C138.131 146.125 140.58 142.698 144.412 141.744Z" fill="white"/>
<path d="M225.678 145.884C251.763 208.623 150.555 251.944 206.898 235.899C237.155 227.283 278.369 185.091 274.195 145.884C274.195 116.346 254.49 85.9829 225.678 85.9829C209.506 97.7492 213.103 115.637 225.678 145.884Z" fill="white"/>
<path d="M191.769 80.3251C191.769 91.0749 202.382 104.331 213.083 104.331C223.785 104.331 232.46 95.6166 232.46 84.8667C232.46 74.1169 218.618 64.7536 207.916 64.7536C199.266 66.4962 194.28 68.9962 191.769 80.3251Z" fill="white"/>
<path d="M198.171 136.633C190.725 154.605 173.154 161.892 177.327 163.496C185.804 166.755 231.938 136.633 229.651 119.688C236.591 104.429 233.573 103.219 229.651 94.0162C225.157 83.4726 215.413 95.0133 198.171 136.633Z" fill="white"/>
<path d="M221.904 136.546C225.461 137.34 227.816 140.365 227.164 143.303C226.942 144.305 226.397 145.166 225.636 145.836C224.859 144.008 223.043 142.496 220.699 141.972C218.356 141.449 216.07 142.046 214.593 143.371C214.187 142.441 214.06 141.429 214.282 140.427C214.934 137.49 218.347 135.752 221.904 136.546Z" fill="white"/>
<g filter="url(#filter1_d_63_39)">
<path d="M338.27 151.21C337.803 151.21 337.477 151.047 337.29 150.72C337.103 150.393 337.01 150.043 337.01 149.67C337.057 148.877 337.243 148.433 337.57 148.34C337.897 148.247 338.293 148.2 338.76 148.2C340.253 148.2 341.303 147.943 341.91 147.43C342.517 146.87 342.89 146.193 343.03 145.4C343.217 144.56 343.31 143.697 343.31 142.81V115.09C343.31 114.203 343.217 113.34 343.03 112.5C342.89 111.66 342.517 110.983 341.91 110.47C341.303 109.91 340.253 109.63 338.76 109.63C338.293 109.63 337.897 109.583 337.57 109.49C337.243 109.397 337.057 108.953 337.01 108.16C337.01 107.787 337.103 107.437 337.29 107.11C337.477 106.783 337.803 106.62 338.27 106.62C339.763 106.667 341.163 106.713 342.47 106.76C343.823 106.807 345.2 106.83 346.6 106.83H358.64C362.42 106.877 365.477 107.46 367.81 108.58C370.19 109.7 371.917 111.123 372.99 112.85C374.063 114.577 374.6 116.373 374.6 118.24C374.6 120.713 373.597 123.047 371.59 125.24C369.63 127.433 366.853 128.997 363.26 129.93C365.033 132.73 366.83 135.553 368.65 138.4C370.47 141.2 372.57 143.837 374.95 146.31C375.603 146.823 376.233 147.243 376.84 147.57C377.493 147.897 378.263 148.107 379.15 148.2C379.523 148.247 379.897 148.317 380.27 148.41C380.643 148.457 380.853 148.877 380.9 149.67C380.9 150.043 380.807 150.393 380.62 150.72C380.433 151.047 380.107 151.21 379.64 151.21C378.66 151.163 377.867 151.117 377.26 151.07C376.7 151.07 376.14 151.047 375.58 151C375.02 151 374.273 151 373.34 151C371.427 150.627 369.793 149.95 368.44 148.97C367.133 147.99 365.85 146.637 364.59 144.91C363.283 143.137 362.07 141.34 360.95 139.52C359.83 137.7 358.733 135.927 357.66 134.2C357.053 133.22 356.423 132.52 355.77 132.1C355.163 131.633 353.997 131.4 352.27 131.4H350.24V142.81C350.287 143.697 350.38 144.56 350.52 145.4C350.66 146.193 351.033 146.87 351.64 147.43C352.293 147.943 353.343 148.2 354.79 148.2C355.257 148.2 355.653 148.247 355.98 148.34C356.307 148.433 356.493 148.877 356.54 149.67C356.54 150.043 356.447 150.393 356.26 150.72C356.073 151.047 355.747 151.21 355.28 151.21C352.293 151.07 349.377 151 346.53 151C345.13 151 343.777 151 342.47 151C341.163 151.047 339.763 151.117 338.27 151.21ZM350.24 128.67H356.4C358.78 128.67 360.647 128.343 362 127.69C363.4 127.037 364.45 126.197 365.15 125.17C365.85 124.143 366.293 123.07 366.48 121.95C366.713 120.83 366.83 119.803 366.83 118.87C366.83 117.33 366.48 115.837 365.78 114.39C365.127 112.943 363.937 111.753 362.21 110.82C360.53 109.887 358.173 109.42 355.14 109.42C353.133 109.42 351.803 109.817 351.15 110.61C350.543 111.357 350.24 112.897 350.24 115.23V128.67ZM385.163 151.21C384.743 151.21 384.44 151.047 384.253 150.72C384.066 150.393 383.973 150.043 383.973 149.67C384.02 148.877 384.206 148.433 384.533 148.34C384.86 148.247 385.256 148.2 385.723 148.2C387.216 148.2 388.266 147.943 388.873 147.43C389.48 146.87 389.853 146.193 389.993 145.4C390.18 144.56 390.273 143.697 390.273 142.81V115.02C390.273 114.133 390.18 113.293 389.993 112.5C389.853 111.66 389.48 110.983 388.873 110.47C388.266 109.91 387.216 109.63 385.723 109.63C385.256 109.63 384.86 109.583 384.533 109.49C384.206 109.397 384.02 108.953 383.973 108.16C383.973 107.787 384.066 107.437 384.253 107.11C384.44 106.783 384.743 106.62 385.163 106.62C386.703 106.667 388.126 106.713 389.433 106.76C390.74 106.807 392.093 106.83 393.493 106.83H415.473C415.986 106.83 416.406 106.947 416.733 107.18C417.106 107.413 417.293 107.857 417.293 108.51L417.503 118.31C417.503 118.777 417.27 119.127 416.803 119.36C416.383 119.593 415.986 119.71 415.613 119.71C415.1 119.71 414.633 119.617 414.213 119.43C413.793 119.197 413.536 118.87 413.443 118.45C413.116 116.35 412.72 114.67 412.253 113.41C411.833 112.103 411.18 111.17 410.293 110.61C409.453 110.003 408.216 109.677 406.583 109.63H397.203V127.41H409.873C410.246 127.457 410.503 127.643 410.643 127.97C410.83 128.297 410.923 128.647 410.923 129.02C410.923 129.347 410.83 129.673 410.643 130C410.503 130.28 410.246 130.42 409.873 130.42H397.203V143.65C397.25 144.257 397.343 144.933 397.483 145.68C397.623 146.38 398.02 146.987 398.673 147.5C399.373 148.013 400.516 148.247 402.103 148.2H408.543C410.176 148.153 411.413 147.897 412.253 147.43C413.14 146.917 413.84 146.077 414.353 144.91C414.866 143.743 415.426 142.133 416.033 140.08C416.22 139.613 416.523 139.31 416.943 139.17C417.41 139.03 417.9 139.007 418.413 139.1C418.786 139.147 419.16 139.31 419.533 139.59C419.953 139.87 420.14 140.243 420.093 140.71L418.693 149.53C418.553 150.183 418.32 150.603 417.993 150.79C417.713 150.93 417.27 151 416.663 151H393.563C392.163 151 390.786 151 389.433 151C388.126 151.047 386.703 151.117 385.163 151.21ZM426.725 151.21C426.305 151.21 426.002 151.047 425.815 150.72C425.629 150.393 425.535 150.043 425.535 149.67C425.582 148.877 425.769 148.433 426.095 148.34C426.422 148.247 426.819 148.2 427.285 148.2C428.779 148.2 429.829 147.943 430.435 147.43C431.042 146.87 431.415 146.193 431.555 145.4C431.742 144.56 431.835 143.697 431.835 142.81V115.02C431.835 114.133 431.742 113.293 431.555 112.5C431.415 111.66 431.042 110.983 430.435 110.47C429.829 109.91 428.779 109.63 427.285 109.63C426.819 109.63 426.422 109.583 426.095 109.49C425.769 109.397 425.582 108.953 425.535 108.16C425.535 107.787 425.629 107.437 425.815 107.11C426.002 106.783 426.305 106.62 426.725 106.62C428.265 106.667 429.689 106.713 430.995 106.76C432.302 106.807 433.655 106.83 435.055 106.83H445.975C450.455 106.83 454.515 107.717 458.155 109.49C461.795 111.263 464.689 113.807 466.835 117.12C468.982 120.433 470.055 124.447 470.055 129.16C470.055 132.893 469.332 136.137 467.885 138.89C466.439 141.643 464.502 143.93 462.075 145.75C459.649 147.523 456.919 148.853 453.885 149.74C450.899 150.58 447.842 151 444.715 151H435.055C433.655 151 432.302 151 430.995 151C429.689 151.047 428.265 151.117 426.725 151.21ZM445.765 148.41C449.545 148.41 452.602 147.617 454.935 146.03C457.269 144.397 458.949 142.133 459.975 139.24C461.049 136.347 461.585 132.987 461.585 129.16C461.585 125.333 460.909 121.927 459.555 118.94C458.202 115.953 456.219 113.62 453.605 111.94C451.039 110.213 447.912 109.35 444.225 109.35C443.479 109.35 442.499 109.373 441.285 109.42C440.072 109.42 439.232 109.42 438.765 109.42V143.65C438.765 145.517 439.325 146.777 440.445 147.43C441.612 148.083 443.385 148.41 445.765 148.41ZM476.628 151.21C476.208 151.21 475.904 151.047 475.718 150.72C475.531 150.393 475.438 150.043 475.438 149.67C475.484 148.877 475.671 148.433 475.998 148.34C476.324 148.247 476.721 148.2 477.188 148.2C478.681 148.2 479.731 147.943 480.338 147.43C480.944 146.87 481.318 146.193 481.458 145.4C481.644 144.56 481.738 143.697 481.738 142.81V115.02C481.738 114.133 481.644 113.293 481.458 112.5C481.318 111.66 480.944 110.983 480.338 110.47C479.731 109.91 478.681 109.63 477.188 109.63C476.721 109.63 476.324 109.583 475.998 109.49C475.671 109.397 475.484 108.953 475.438 108.16C475.438 107.787 475.531 107.437 475.718 107.11C475.904 106.783 476.208 106.62 476.628 106.62C478.168 106.667 479.591 106.713 480.898 106.76C482.204 106.807 483.558 106.83 484.958 106.83H506.938C507.451 106.83 507.871 106.947 508.198 107.18C508.571 107.413 508.758 107.857 508.758 108.51L508.968 118.31C508.968 118.777 508.734 119.127 508.268 119.36C507.848 119.593 507.451 119.71 507.078 119.71C506.564 119.71 506.098 119.617 505.678 119.43C505.258 119.197 505.001 118.87 504.908 118.45C504.581 116.35 504.184 114.67 503.718 113.41C503.298 112.103 502.644 111.17 501.758 110.61C500.918 110.003 499.681 109.677 498.048 109.63H488.668V127.41H501.338C501.711 127.457 501.968 127.643 502.108 127.97C502.294 128.297 502.388 128.647 502.388 129.02C502.388 129.347 502.294 129.673 502.108 130C501.968 130.28 501.711 130.42 501.338 130.42H488.668V143.65C488.714 144.257 488.808 144.933 488.948 145.68C489.088 146.38 489.484 146.987 490.138 147.5C490.838 148.013 491.981 148.247 493.568 148.2H500.008C501.641 148.153 502.878 147.897 503.718 147.43C504.604 146.917 505.304 146.077 505.818 144.91C506.331 143.743 506.891 142.133 507.498 140.08C507.684 139.613 507.988 139.31 508.408 139.17C508.874 139.03 509.364 139.007 509.878 139.1C510.251 139.147 510.624 139.31 510.998 139.59C511.418 139.87 511.604 140.243 511.558 140.71L510.158 149.53C510.018 150.183 509.784 150.603 509.458 150.79C509.178 150.93 508.734 151 508.128 151H485.028C483.628 151 482.251 151 480.898 151C479.591 151.047 478.168 151.117 476.628 151.21Z" fill="white"/>
</g>
<g filter="url(#filter2_d_63_39)">
<path d="M706.28 154.7C706.28 154.7 706.023 154.047 705.51 152.74C705.043 151.387 704.413 149.637 703.62 147.49C702.873 145.297 702.01 142.917 701.03 140.35C700.097 137.737 699.14 135.147 698.16 132.58C697.227 129.967 696.363 127.587 695.57 125.44C694.823 123.293 694.193 121.567 693.68 120.26C693.213 118.953 692.98 118.3 692.98 118.3C692.233 116.387 691.487 115.01 690.74 114.17C689.993 113.33 688.873 112.77 687.38 112.49C686.727 112.35 686.26 112.233 685.98 112.14C685.747 112.047 685.63 111.627 685.63 110.88C685.63 110.087 685.91 109.667 686.47 109.62C687.03 109.527 687.683 109.48 688.43 109.48C691.557 109.527 693.983 110.11 695.71 111.23C697.437 112.303 698.813 114.17 699.84 116.83L709.99 144.13H710.2L719.86 116.06C720.373 114.567 720.397 113.633 719.93 113.26C719.463 112.84 718.413 112.63 716.78 112.63C716.313 112.63 715.917 112.583 715.59 112.49C715.263 112.397 715.077 111.953 715.03 111.16C715.03 110.787 715.123 110.437 715.31 110.11C715.497 109.783 715.8 109.62 716.22 109.62C717.713 109.667 718.997 109.713 720.07 109.76C721.19 109.807 722.45 109.83 723.85 109.83C724.783 109.83 725.553 109.83 726.16 109.83C726.767 109.783 727.373 109.76 727.98 109.76C728.633 109.713 729.45 109.667 730.43 109.62C730.897 109.62 731.223 109.783 731.41 110.11C731.597 110.437 731.69 110.787 731.69 111.16C731.643 111.953 731.457 112.397 731.13 112.49C730.85 112.583 730.453 112.63 729.94 112.63C728.167 112.63 726.767 112.957 725.74 113.61C724.713 114.263 723.827 115.523 723.08 117.39C723.08 117.343 722.823 117.997 722.31 119.35C721.843 120.657 721.213 122.43 720.42 124.67C719.627 126.863 718.74 129.29 717.76 131.95C716.827 134.61 715.87 137.27 714.89 139.93C713.91 142.59 713.023 145.04 712.23 147.28C711.437 149.52 710.783 151.317 710.27 152.67C709.803 154.023 709.57 154.7 709.57 154.7H706.28ZM733.975 154.21C733.509 154.21 733.182 154.047 732.995 153.72C732.809 153.393 732.715 153.043 732.715 152.67C732.762 151.877 732.949 151.433 733.275 151.34C733.602 151.247 733.999 151.2 734.465 151.2C735.959 151.2 737.009 150.943 737.615 150.43C738.222 149.87 738.595 149.193 738.735 148.4C738.922 147.56 739.039 146.697 739.085 145.81V118.02C739.039 117.133 738.922 116.293 738.735 115.5C738.595 114.66 738.222 113.983 737.615 113.47C737.009 112.91 735.959 112.63 734.465 112.63C733.999 112.63 733.602 112.583 733.275 112.49C732.949 112.397 732.762 111.953 732.715 111.16C732.715 110.787 732.809 110.437 732.995 110.11C733.182 109.783 733.509 109.62 733.975 109.62C735.469 109.667 736.869 109.713 738.175 109.76C739.529 109.807 740.905 109.83 742.305 109.83C745.152 109.83 748.069 109.76 751.055 109.62C751.475 109.62 751.779 109.783 751.965 110.11C752.199 110.437 752.315 110.787 752.315 111.16C752.269 111.953 752.082 112.397 751.755 112.49C751.429 112.583 751.009 112.63 750.495 112.63C749.049 112.63 747.999 112.91 747.345 113.47C746.739 113.983 746.365 114.66 746.225 115.5C746.085 116.293 745.992 117.133 745.945 118.02V145.81C745.992 146.697 746.085 147.56 746.225 148.4C746.365 149.193 746.739 149.87 747.345 150.43C747.999 150.943 749.049 151.2 750.495 151.2C751.009 151.2 751.429 151.247 751.755 151.34C752.082 151.433 752.269 151.877 752.315 152.67C752.315 153.043 752.199 153.393 751.965 153.72C751.779 154.047 751.475 154.21 751.055 154.21C748.069 154.07 745.175 154 742.375 154C740.975 154 739.599 154 738.245 154C736.892 154.047 735.469 154.117 733.975 154.21ZM775.391 154.7C775.391 154.7 775.135 154.047 774.621 152.74C774.155 151.387 773.525 149.637 772.731 147.49C771.985 145.297 771.121 142.917 770.141 140.35C769.208 137.737 768.251 135.147 767.271 132.58C766.338 129.967 765.475 127.587 764.681 125.44C763.935 123.293 763.305 121.567 762.791 120.26C762.325 118.953 762.091 118.3 762.091 118.3C761.345 116.387 760.598 115.01 759.851 114.17C759.105 113.33 757.985 112.77 756.491 112.49C755.838 112.35 755.371 112.233 755.091 112.14C754.858 112.047 754.741 111.627 754.741 110.88C754.741 110.087 755.021 109.667 755.581 109.62C756.141 109.527 756.795 109.48 757.541 109.48C760.668 109.527 763.095 110.11 764.821 111.23C766.548 112.303 767.925 114.17 768.951 116.83L779.101 144.13H779.311L788.971 116.06C789.485 114.567 789.508 113.633 789.041 113.26C788.575 112.84 787.525 112.63 785.891 112.63C785.425 112.63 785.028 112.583 784.701 112.49C784.375 112.397 784.188 111.953 784.141 111.16C784.141 110.787 784.235 110.437 784.421 110.11C784.608 109.783 784.911 109.62 785.331 109.62C786.825 109.667 788.108 109.713 789.181 109.76C790.301 109.807 791.561 109.83 792.961 109.83C793.895 109.83 794.665 109.83 795.271 109.83C795.878 109.783 796.485 109.76 797.091 109.76C797.745 109.713 798.561 109.667 799.541 109.62C800.008 109.62 800.335 109.783 800.521 110.11C800.708 110.437 800.801 110.787 800.801 111.16C800.755 111.953 800.568 112.397 800.241 112.49C799.961 112.583 799.565 112.63 799.051 112.63C797.278 112.63 795.878 112.957 794.851 113.61C793.825 114.263 792.938 115.523 792.191 117.39C792.191 117.343 791.935 117.997 791.421 119.35C790.955 120.657 790.325 122.43 789.531 124.67C788.738 126.863 787.851 129.29 786.871 131.95C785.938 134.61 784.981 137.27 784.001 139.93C783.021 142.59 782.135 145.04 781.341 147.28C780.548 149.52 779.895 151.317 779.381 152.67C778.915 154.023 778.681 154.7 778.681 154.7H775.391ZM803.087 154.21C802.667 154.21 802.363 154.047 802.177 153.72C801.99 153.393 801.897 153.043 801.897 152.67C801.943 151.877 802.13 151.433 802.457 151.34C802.783 151.247 803.18 151.2 803.647 151.2C805.14 151.2 806.19 150.943 806.797 150.43C807.403 149.87 807.777 149.193 807.917 148.4C808.103 147.56 808.197 146.697 808.197 145.81V118.02C808.197 117.133 808.103 116.293 807.917 115.5C807.777 114.66 807.403 113.983 806.797 113.47C806.19 112.91 805.14 112.63 803.647 112.63C803.18 112.63 802.783 112.583 802.457 112.49C802.13 112.397 801.943 111.953 801.897 111.16C801.897 110.787 801.99 110.437 802.177 110.11C802.363 109.783 802.667 109.62 803.087 109.62C804.627 109.667 806.05 109.713 807.357 109.76C808.663 109.807 810.017 109.83 811.417 109.83H833.397C833.91 109.83 834.33 109.947 834.657 110.18C835.03 110.413 835.217 110.857 835.217 111.51L835.427 121.31C835.427 121.777 835.193 122.127 834.727 122.36C834.307 122.593 833.91 122.71 833.537 122.71C833.023 122.71 832.557 122.617 832.137 122.43C831.717 122.197 831.46 121.87 831.367 121.45C831.04 119.35 830.643 117.67 830.177 116.41C829.757 115.103 829.103 114.17 828.217 113.61C827.377 113.003 826.14 112.677 824.507 112.63H815.127V130.41H827.797C828.17 130.457 828.427 130.643 828.567 130.97C828.753 131.297 828.847 131.647 828.847 132.02C828.847 132.347 828.753 132.673 828.567 133C828.427 133.28 828.17 133.42 827.797 133.42H815.127V146.65C815.173 147.257 815.267 147.933 815.407 148.68C815.547 149.38 815.943 149.987 816.597 150.5C817.297 151.013 818.44 151.247 820.027 151.2H826.467C828.1 151.153 829.337 150.897 830.177 150.43C831.063 149.917 831.763 149.077 832.277 147.91C832.79 146.743 833.35 145.133 833.957 143.08C834.143 142.613 834.447 142.31 834.867 142.17C835.333 142.03 835.823 142.007 836.337 142.1C836.71 142.147 837.083 142.31 837.457 142.59C837.877 142.87 838.063 143.243 838.017 143.71L836.617 152.53C836.477 153.183 836.243 153.603 835.917 153.79C835.637 153.93 835.193 154 834.587 154H811.487C810.087 154 808.71 154 807.357 154C806.05 154.047 804.627 154.117 803.087 154.21ZM844.719 154.21C844.253 154.21 843.926 154.047 843.739 153.72C843.553 153.393 843.459 153.043 843.459 152.67C843.506 151.877 843.693 151.433 844.019 151.34C844.346 151.247 844.743 151.2 845.209 151.2C846.703 151.2 847.753 150.943 848.359 150.43C848.966 149.87 849.339 149.193 849.479 148.4C849.666 147.56 849.759 146.697 849.759 145.81V118.09C849.759 117.203 849.666 116.34 849.479 115.5C849.339 114.66 848.966 113.983 848.359 113.47C847.753 112.91 846.703 112.63 845.209 112.63C844.743 112.63 844.346 112.583 844.019 112.49C843.693 112.397 843.506 111.953 843.459 111.16C843.459 110.787 843.553 110.437 843.739 110.11C843.926 109.783 844.253 109.62 844.719 109.62C846.213 109.667 847.613 109.713 848.919 109.76C850.273 109.807 851.649 109.83 853.049 109.83H865.089C868.869 109.877 871.926 110.46 874.259 111.58C876.639 112.7 878.366 114.123 879.439 115.85C880.513 117.577 881.049 119.373 881.049 121.24C881.049 123.713 880.046 126.047 878.039 128.24C876.079 130.433 873.303 131.997 869.709 132.93C871.483 135.73 873.279 138.553 875.099 141.4C876.919 144.2 879.019 146.837 881.399 149.31C882.053 149.823 882.683 150.243 883.289 150.57C883.943 150.897 884.713 151.107 885.599 151.2C885.973 151.247 886.346 151.317 886.719 151.41C887.093 151.457 887.303 151.877 887.349 152.67C887.349 153.043 887.256 153.393 887.069 153.72C886.883 154.047 886.556 154.21 886.089 154.21C885.109 154.163 884.316 154.117 883.709 154.07C883.149 154.07 882.589 154.047 882.029 154C881.469 154 880.723 154 879.789 154C877.876 153.627 876.243 152.95 874.889 151.97C873.583 150.99 872.299 149.637 871.039 147.91C869.733 146.137 868.519 144.34 867.399 142.52C866.279 140.7 865.183 138.927 864.109 137.2C863.503 136.22 862.873 135.52 862.219 135.1C861.613 134.633 860.446 134.4 858.719 134.4H856.689V145.81C856.736 146.697 856.829 147.56 856.969 148.4C857.109 149.193 857.483 149.87 858.089 150.43C858.743 150.943 859.793 151.2 861.239 151.2C861.706 151.2 862.103 151.247 862.429 151.34C862.756 151.433 862.943 151.877 862.989 152.67C862.989 153.043 862.896 153.393 862.709 153.72C862.523 154.047 862.196 154.21 861.729 154.21C858.743 154.07 855.826 154 852.979 154C851.579 154 850.226 154 848.919 154C847.613 154.047 846.213 154.117 844.719 154.21ZM856.689 131.67H862.849C865.229 131.67 867.096 131.343 868.449 130.69C869.849 130.037 870.899 129.197 871.599 128.17C872.299 127.143 872.743 126.07 872.929 124.95C873.163 123.83 873.279 122.803 873.279 121.87C873.279 120.33 872.929 118.837 872.229 117.39C871.576 115.943 870.386 114.753 868.659 113.82C866.979 112.887 864.623 112.42 861.589 112.42C859.583 112.42 858.253 112.817 857.599 113.61C856.993 114.357 856.689 115.897 856.689 118.23V131.67Z" fill="white"/>
</g>
<g filter="url(#filter3_d_63_39)">
<path d="M532.2 153.21C531.733 153.21 531.407 153.047 531.22 152.72C531.033 152.393 530.94 152.043 530.94 151.67C530.987 150.877 531.173 150.433 531.5 150.34C531.827 150.247 532.223 150.2 532.69 150.2C534.183 150.2 535.233 149.943 535.84 149.43C536.447 148.87 536.82 148.193 536.96 147.4C537.147 146.56 537.24 145.697 537.24 144.81V117.02C537.24 116.133 537.147 115.293 536.96 114.5C536.82 113.66 536.447 112.983 535.84 112.47C535.233 111.91 534.183 111.63 532.69 111.63C532.223 111.63 531.827 111.583 531.5 111.49C531.173 111.397 530.987 110.953 530.94 110.16C530.94 109.787 531.033 109.437 531.22 109.11C531.407 108.783 531.733 108.62 532.2 108.62C533.693 108.667 535.093 108.713 536.4 108.76C537.707 108.807 539.06 108.83 540.46 108.83H550.33C553.037 108.83 555.16 109.04 556.7 109.46C558.287 109.833 559.663 110.393 560.83 111.14C562.043 111.933 563 113.03 563.7 114.43C564.4 115.783 564.75 117.277 564.75 118.91C564.75 121.01 564.26 122.783 563.28 124.23C562.3 125.63 561.063 126.75 559.57 127.59C558.123 128.383 556.7 128.943 555.3 129.27V129.48C557.773 129.433 559.967 129.877 561.88 130.81C563.793 131.743 565.31 132.98 566.43 134.52C567.55 136.06 568.133 137.74 568.18 139.56C568.273 142.22 567.713 144.413 566.5 146.14C565.287 147.867 563.7 149.243 561.74 150.27C559.827 151.297 557.727 152.02 555.44 152.44C553.2 152.86 551.03 153.07 548.93 153.07L540.53 153C539.13 153 537.753 153 536.4 153C535.093 153.047 533.693 153.117 532.2 153.21ZM544.17 128.08H547.11C548.043 128.08 549.093 128.033 550.26 127.94C551.427 127.847 552.547 127.567 553.62 127.1C554.693 126.587 555.557 125.77 556.21 124.65C556.91 123.483 557.26 121.85 557.26 119.75C557.26 117.277 556.653 115.27 555.44 113.73C554.273 112.19 552.15 111.42 549.07 111.42H544.17V128.08ZM549.21 150.27C551.31 150.223 553.223 149.873 554.95 149.22C556.677 148.567 558.053 147.47 559.08 145.93C560.107 144.39 560.62 142.267 560.62 139.56C560.48 138.067 559.967 136.667 559.08 135.36C558.24 134.053 556.84 132.98 554.88 132.14C552.967 131.3 550.353 130.88 547.04 130.88H544.17V144.81C544.17 147.143 544.52 148.637 545.22 149.29C545.92 149.943 547.25 150.27 549.21 150.27ZM574.993 153.21C574.573 153.21 574.27 153.047 574.083 152.72C573.896 152.393 573.803 152.043 573.803 151.67C573.85 150.877 574.036 150.433 574.363 150.34C574.69 150.247 575.086 150.2 575.553 150.2C577.046 150.2 578.096 149.943 578.703 149.43C579.31 148.87 579.683 148.193 579.823 147.4C580.01 146.56 580.103 145.697 580.103 144.81V117.02C580.103 116.133 580.01 115.293 579.823 114.5C579.683 113.66 579.31 112.983 578.703 112.47C578.096 111.91 577.046 111.63 575.553 111.63C575.086 111.63 574.69 111.583 574.363 111.49C574.036 111.397 573.85 110.953 573.803 110.16C573.803 109.787 573.896 109.437 574.083 109.11C574.27 108.783 574.573 108.62 574.993 108.62C576.533 108.667 577.956 108.713 579.263 108.76C580.57 108.807 581.923 108.83 583.323 108.83H605.303C605.816 108.83 606.236 108.947 606.563 109.18C606.936 109.413 607.123 109.857 607.123 110.51L607.333 120.31C607.333 120.777 607.1 121.127 606.633 121.36C606.213 121.593 605.816 121.71 605.443 121.71C604.93 121.71 604.463 121.617 604.043 121.43C603.623 121.197 603.366 120.87 603.273 120.45C602.946 118.35 602.55 116.67 602.083 115.41C601.663 114.103 601.01 113.17 600.123 112.61C599.283 112.003 598.046 111.677 596.413 111.63H587.033V129.41H599.703C600.076 129.457 600.333 129.643 600.473 129.97C600.66 130.297 600.753 130.647 600.753 131.02C600.753 131.347 600.66 131.673 600.473 132C600.333 132.28 600.076 132.42 599.703 132.42H587.033V145.65C587.08 146.257 587.173 146.933 587.313 147.68C587.453 148.38 587.85 148.987 588.503 149.5C589.203 150.013 590.346 150.247 591.933 150.2H598.373C600.006 150.153 601.243 149.897 602.083 149.43C602.97 148.917 603.67 148.077 604.183 146.91C604.696 145.743 605.256 144.133 605.863 142.08C606.05 141.613 606.353 141.31 606.773 141.17C607.24 141.03 607.73 141.007 608.243 141.1C608.616 141.147 608.99 141.31 609.363 141.59C609.783 141.87 609.97 142.243 609.923 142.71L608.523 151.53C608.383 152.183 608.15 152.603 607.823 152.79C607.543 152.93 607.1 153 606.493 153H583.393C581.993 153 580.616 153 579.263 153C577.956 153.047 576.533 153.117 574.993 153.21ZM642.315 153.35C642.035 153.35 641.755 153.28 641.475 153.14C641.195 153.047 640.985 152.883 640.845 152.65L625.095 117.02H624.885L625.025 144.81C625.072 145.697 625.142 146.56 625.235 147.4C625.375 148.193 625.749 148.87 626.355 149.43C626.962 149.943 627.989 150.2 629.435 150.2C629.949 150.2 630.369 150.247 630.695 150.34C631.022 150.433 631.209 150.877 631.255 151.67C631.255 152.043 631.139 152.393 630.905 152.72C630.719 153.047 630.415 153.21 629.995 153.21C629.015 153.163 628.222 153.117 627.615 153.07C627.009 153.07 626.425 153.047 625.865 153C625.305 153 624.559 153 623.625 153C622.225 153 621.082 153 620.195 153C619.355 153.047 618.189 153.117 616.695 153.21C616.229 153.21 615.902 153.047 615.715 152.72C615.529 152.393 615.435 152.043 615.435 151.67C615.482 150.877 615.669 150.433 615.995 150.34C616.322 150.247 616.719 150.2 617.185 150.2C618.679 150.2 619.705 149.943 620.265 149.43C620.872 148.87 621.245 148.193 621.385 147.4C621.525 146.56 621.595 145.697 621.595 144.81L621.735 117.02C621.735 115.527 621.572 114.43 621.245 113.73C620.919 112.983 620.405 112.47 619.705 112.19C619.005 111.863 618.119 111.607 617.045 111.42C616.392 111.28 615.925 111.163 615.645 111.07C615.412 110.977 615.295 110.557 615.295 109.81C615.295 109.017 615.575 108.597 616.135 108.55C616.695 108.457 617.349 108.41 618.095 108.41C620.382 108.41 622.389 108.597 624.115 108.97C625.889 109.343 627.429 110.067 628.735 111.14C630.042 112.167 631.115 113.73 631.955 115.83L643.995 142.85H644.205L657.995 108.83H661.985C663.385 108.83 664.739 108.807 666.045 108.76C667.399 108.713 668.822 108.667 670.315 108.62C670.782 108.62 671.109 108.783 671.295 109.11C671.482 109.437 671.575 109.787 671.575 110.16C671.529 110.953 671.342 111.397 671.015 111.49C670.689 111.583 670.292 111.63 669.825 111.63C668.379 111.63 667.329 111.91 666.675 112.47C666.069 112.983 665.695 113.66 665.555 114.5C665.415 115.293 665.322 116.133 665.275 117.02V144.81C665.322 145.697 665.415 146.56 665.555 147.4C665.695 148.193 666.069 148.87 666.675 149.43C667.329 149.943 668.379 150.2 669.825 150.2C670.292 150.2 670.689 150.247 671.015 150.34C671.342 150.433 671.529 150.877 671.575 151.67C671.575 152.043 671.482 152.393 671.295 152.72C671.109 153.047 670.782 153.21 670.315 153.21C668.822 153.117 667.399 153.047 666.045 153C664.692 153 663.315 153 661.915 153C659.209 153 656.339 153.07 653.305 153.21C652.839 153.21 652.512 153.047 652.325 152.72C652.139 152.393 652.045 152.043 652.045 151.67C652.092 150.877 652.279 150.433 652.605 150.34C652.932 150.247 653.329 150.2 653.795 150.2C655.289 150.2 656.339 149.943 656.945 149.43C657.552 148.87 657.925 148.193 658.065 147.4C658.252 146.56 658.345 145.697 658.345 144.81V117.02H658.135L643.715 152.65C643.622 152.883 643.435 153.047 643.155 153.14C642.875 153.28 642.595 153.35 642.315 153.35Z" fill="#12BD4B"/>
</g>
<path d="M355.642 198V176.182H358.284V195.656H368.426V198H355.642ZM376.991 198.384C375.955 198.384 375.013 198.188 374.168 197.798C373.323 197.4 372.652 196.828 372.155 196.082C371.658 195.33 371.409 194.42 371.409 193.355C371.409 192.418 371.594 191.658 371.963 191.075C372.332 190.486 372.826 190.024 373.444 189.69C374.062 189.357 374.744 189.108 375.489 188.945C376.242 188.774 376.999 188.639 377.759 188.54C378.753 188.412 379.559 188.316 380.177 188.252C380.802 188.181 381.256 188.064 381.54 187.901C381.832 187.737 381.977 187.453 381.977 187.048V186.963C381.977 185.912 381.69 185.095 381.114 184.513C380.546 183.93 379.683 183.639 378.526 183.639C377.325 183.639 376.384 183.902 375.702 184.428C375.021 184.953 374.541 185.514 374.264 186.111L371.878 185.259C372.304 184.264 372.872 183.49 373.582 182.936C374.3 182.375 375.081 181.984 375.926 181.764C376.778 181.537 377.616 181.423 378.44 181.423C378.966 181.423 379.57 181.487 380.251 181.615C380.94 181.736 381.604 181.988 382.244 182.371C382.89 182.755 383.426 183.334 383.852 184.108C384.278 184.882 384.491 185.919 384.491 187.219V198H381.977V195.784H381.849C381.679 196.139 381.395 196.519 380.997 196.924C380.599 197.329 380.07 197.673 379.41 197.957C378.749 198.241 377.943 198.384 376.991 198.384ZM377.375 196.125C378.369 196.125 379.207 195.93 379.889 195.539C380.578 195.148 381.097 194.644 381.445 194.026C381.8 193.408 381.977 192.759 381.977 192.077V189.776C381.871 189.903 381.636 190.021 381.274 190.127C380.919 190.227 380.507 190.315 380.038 190.393C379.577 190.464 379.126 190.528 378.685 190.585C378.252 190.635 377.901 190.678 377.631 190.713C376.977 190.798 376.366 190.937 375.798 191.129C375.237 191.313 374.783 191.594 374.435 191.97C374.094 192.339 373.923 192.844 373.923 193.483C373.923 194.357 374.246 195.017 374.893 195.464C375.546 195.905 376.374 196.125 377.375 196.125ZM388.612 198V196.082L397.901 184.151V183.98H388.91V181.636H401.14V183.639L392.106 195.486V195.656H401.438V198H388.612ZM411.703 198.341C410.126 198.341 408.766 197.993 407.623 197.297C406.486 196.594 405.609 195.614 404.991 194.357C404.381 193.092 404.075 191.622 404.075 189.946C404.075 188.27 404.381 186.793 404.991 185.514C405.609 184.229 406.469 183.227 407.569 182.51C408.677 181.786 409.97 181.423 411.447 181.423C412.3 181.423 413.141 181.565 413.972 181.849C414.803 182.134 415.559 182.595 416.241 183.234C416.923 183.866 417.466 184.705 417.871 185.749C418.276 186.793 418.479 188.078 418.479 189.605V190.67H405.865V188.497H415.922C415.922 187.574 415.737 186.75 415.368 186.026C415.006 185.301 414.487 184.729 413.812 184.31C413.145 183.891 412.356 183.682 411.447 183.682C410.446 183.682 409.579 183.93 408.848 184.428C408.123 184.918 407.566 185.557 407.175 186.345C406.785 187.134 406.589 187.979 406.589 188.881V190.33C406.589 191.565 406.802 192.613 407.229 193.472C407.662 194.325 408.262 194.974 409.029 195.422C409.796 195.862 410.687 196.082 411.703 196.082C412.363 196.082 412.96 195.99 413.493 195.805C414.032 195.614 414.498 195.33 414.888 194.953C415.279 194.57 415.581 194.094 415.794 193.526L418.223 194.207C417.967 195.031 417.537 195.756 416.934 196.381C416.33 196.999 415.584 197.482 414.697 197.83C413.809 198.17 412.811 198.341 411.703 198.341ZM422.303 198V181.636H424.732V184.108H424.903C425.201 183.298 425.741 182.641 426.522 182.137C427.303 181.633 428.184 181.381 429.164 181.381C429.349 181.381 429.579 181.384 429.856 181.391C430.133 181.398 430.343 181.409 430.485 181.423V183.98C430.4 183.959 430.204 183.927 429.899 183.884C429.601 183.835 429.285 183.81 428.951 183.81C428.155 183.81 427.445 183.977 426.82 184.31C426.202 184.637 425.712 185.092 425.35 185.674C424.995 186.249 424.817 186.906 424.817 187.645V198H422.303ZM448.082 198.298C446.647 198.298 445.411 198.036 444.374 197.51C443.337 196.984 442.538 196.263 441.977 195.347C441.416 194.431 441.136 193.384 441.136 192.205C441.136 191.295 441.327 190.489 441.711 189.786C442.102 189.076 442.638 188.419 443.32 187.815C444.009 187.205 444.8 186.594 445.695 185.983L448.849 183.639C449.467 183.234 449.96 182.801 450.33 182.339C450.706 181.878 450.894 181.274 450.894 180.528C450.894 179.974 450.649 179.438 450.159 178.92C449.676 178.401 449.04 178.142 448.252 178.142C447.698 178.142 447.208 178.284 446.782 178.568C446.363 178.845 446.033 179.2 445.791 179.634C445.557 180.06 445.44 180.5 445.44 180.955C445.44 181.466 445.578 181.984 445.855 182.51C446.139 183.028 446.498 183.561 446.931 184.108C447.371 184.648 447.826 185.202 448.295 185.77L458.309 198H455.283L447.016 188.028C446.249 187.105 445.553 186.267 444.928 185.514C444.303 184.761 443.806 184.019 443.437 183.288C443.067 182.556 442.883 181.764 442.883 180.912C442.883 179.932 443.099 179.072 443.533 178.334C443.973 177.588 444.587 177.009 445.376 176.597C446.171 176.178 447.102 175.969 448.167 175.969C449.261 175.969 450.202 176.182 450.99 176.608C451.778 177.027 452.386 177.585 452.812 178.281C453.238 178.969 453.451 179.719 453.451 180.528C453.451 181.572 453.192 182.478 452.673 183.245C452.155 184.012 451.448 184.726 450.553 185.386L446.207 188.625C445.227 189.349 444.563 190.053 444.214 190.734C443.866 191.416 443.692 191.906 443.692 192.205C443.692 192.886 443.87 193.522 444.225 194.112C444.58 194.701 445.081 195.177 445.727 195.539C446.374 195.901 447.13 196.082 447.996 196.082C448.82 196.082 449.623 195.908 450.404 195.56C451.185 195.205 451.892 194.694 452.524 194.026C453.163 193.359 453.668 192.556 454.037 191.619C454.413 190.681 454.602 189.626 454.602 188.455H457.031C457.031 189.903 456.864 191.086 456.53 192.002C456.196 192.918 455.82 193.636 455.401 194.154C454.982 194.673 454.644 195.06 454.388 195.315C454.303 195.422 454.225 195.528 454.154 195.635C454.083 195.741 454.005 195.848 453.92 195.955C453.217 196.743 452.329 197.332 451.256 197.723C450.184 198.107 449.126 198.298 448.082 198.298ZM487.427 183H484.785C484.629 182.24 484.356 181.572 483.965 180.997C483.581 180.422 483.113 179.939 482.559 179.548C482.012 179.151 481.405 178.852 480.737 178.653C480.069 178.455 479.373 178.355 478.649 178.355C477.328 178.355 476.131 178.689 475.059 179.357C473.993 180.024 473.145 181.008 472.513 182.308C471.888 183.607 471.575 185.202 471.575 187.091C471.575 188.98 471.888 190.575 472.513 191.874C473.145 193.174 473.993 194.158 475.059 194.825C476.131 195.493 477.328 195.827 478.649 195.827C479.373 195.827 480.069 195.727 480.737 195.528C481.405 195.33 482.012 195.035 482.559 194.644C483.113 194.246 483.581 193.76 483.965 193.185C484.356 192.602 484.629 191.935 484.785 191.182H487.427C487.229 192.297 486.866 193.295 486.341 194.175C485.815 195.056 485.162 195.805 484.381 196.423C483.599 197.034 482.722 197.499 481.749 197.819C480.783 198.138 479.75 198.298 478.649 198.298C476.788 198.298 475.133 197.844 473.684 196.935C472.236 196.026 471.096 194.733 470.265 193.057C469.434 191.381 469.018 189.392 469.018 187.091C469.018 184.79 469.434 182.801 470.265 181.125C471.096 179.449 472.236 178.156 473.684 177.247C475.133 176.338 476.788 175.884 478.649 175.884C479.75 175.884 480.783 176.043 481.749 176.363C482.722 176.683 483.599 177.151 484.381 177.769C485.162 178.38 485.815 179.126 486.341 180.006C486.866 180.88 487.229 181.878 487.427 183ZM501.668 191.31V181.636H504.183V198H501.668V195.23H501.498C501.114 196.061 500.518 196.768 499.708 197.35C498.898 197.925 497.876 198.213 496.64 198.213C495.617 198.213 494.708 197.989 493.913 197.542C493.117 197.087 492.492 196.406 492.038 195.496C491.583 194.58 491.356 193.426 491.356 192.034V181.636H493.87V191.864C493.87 193.057 494.204 194.009 494.871 194.719C495.546 195.429 496.406 195.784 497.45 195.784C498.075 195.784 498.71 195.624 499.357 195.305C500.01 194.985 500.557 194.495 500.997 193.835C501.445 193.174 501.668 192.332 501.668 191.31ZM508.787 198V181.636H511.302V198H508.787ZM510.066 178.909C509.576 178.909 509.153 178.742 508.798 178.408C508.45 178.075 508.276 177.673 508.276 177.205C508.276 176.736 508.45 176.335 508.798 176.001C509.153 175.667 509.576 175.5 510.066 175.5C510.556 175.5 510.975 175.667 511.323 176.001C511.678 176.335 511.856 176.736 511.856 177.205C511.856 177.673 511.678 178.075 511.323 178.408C510.975 178.742 510.556 178.909 510.066 178.909ZM522.086 198.341C520.722 198.341 519.518 197.996 518.474 197.308C517.43 196.612 516.613 195.631 516.024 194.367C515.434 193.096 515.14 191.594 515.14 189.861C515.14 188.142 515.434 186.651 516.024 185.386C516.613 184.122 517.434 183.146 518.485 182.457C519.536 181.768 520.75 181.423 522.128 181.423C523.194 181.423 524.035 181.601 524.653 181.956C525.278 182.304 525.754 182.702 526.081 183.149C526.414 183.589 526.674 183.952 526.858 184.236H527.071V176.182H529.586V198H527.157V195.486H526.858C526.674 195.784 526.411 196.161 526.07 196.615C525.729 197.062 525.243 197.464 524.61 197.819C523.978 198.167 523.137 198.341 522.086 198.341ZM522.426 196.082C523.435 196.082 524.287 195.82 524.983 195.294C525.679 194.761 526.208 194.026 526.571 193.089C526.933 192.144 527.114 191.054 527.114 189.818C527.114 188.597 526.936 187.528 526.581 186.612C526.226 185.688 525.701 184.971 525.005 184.46C524.309 183.941 523.449 183.682 522.426 183.682C521.361 183.682 520.473 183.955 519.763 184.502C519.06 185.042 518.531 185.777 518.176 186.707C517.828 187.631 517.654 188.668 517.654 189.818C517.654 190.983 517.831 192.041 518.186 192.993C518.549 193.937 519.081 194.69 519.784 195.251C520.495 195.805 521.375 196.082 522.426 196.082ZM539.355 198.384C538.318 198.384 537.377 198.188 536.532 197.798C535.686 197.4 535.015 196.828 534.518 196.082C534.021 195.33 533.772 194.42 533.772 193.355C533.772 192.418 533.957 191.658 534.326 191.075C534.696 190.486 535.189 190.024 535.807 189.69C536.425 189.357 537.107 189.108 537.853 188.945C538.605 188.774 539.362 188.639 540.122 188.54C541.116 188.412 541.922 188.316 542.54 188.252C543.165 188.181 543.62 188.064 543.904 187.901C544.195 187.737 544.341 187.453 544.341 187.048V186.963C544.341 185.912 544.053 185.095 543.478 184.513C542.909 183.93 542.047 183.639 540.889 183.639C539.689 183.639 538.748 183.902 538.066 184.428C537.384 184.953 536.904 185.514 536.627 186.111L534.241 185.259C534.667 184.264 535.235 183.49 535.946 182.936C536.663 182.375 537.444 181.984 538.289 181.764C539.142 181.537 539.98 181.423 540.804 181.423C541.329 181.423 541.933 181.487 542.615 181.615C543.304 181.736 543.968 181.988 544.607 182.371C545.253 182.755 545.789 183.334 546.216 184.108C546.642 184.882 546.855 185.919 546.855 187.219V198H544.341V195.784H544.213C544.042 196.139 543.758 196.519 543.36 196.924C542.963 197.329 542.434 197.673 541.773 197.957C541.113 198.241 540.306 198.384 539.355 198.384ZM539.738 196.125C540.733 196.125 541.571 195.93 542.252 195.539C542.941 195.148 543.46 194.644 543.808 194.026C544.163 193.408 544.341 192.759 544.341 192.077V189.776C544.234 189.903 544 190.021 543.637 190.127C543.282 190.227 542.87 190.315 542.402 190.393C541.94 190.464 541.489 190.528 541.049 190.585C540.615 190.635 540.264 190.678 539.994 190.713C539.341 190.798 538.73 190.937 538.162 191.129C537.6 191.313 537.146 191.594 536.798 191.97C536.457 192.339 536.287 192.844 536.287 193.483C536.287 194.357 536.61 195.017 537.256 195.464C537.909 195.905 538.737 196.125 539.738 196.125ZM557.623 198.341C556.259 198.341 555.055 197.996 554.011 197.308C552.967 196.612 552.15 195.631 551.561 194.367C550.971 193.096 550.677 191.594 550.677 189.861C550.677 188.142 550.971 186.651 551.561 185.386C552.15 184.122 552.971 183.146 554.022 182.457C555.073 181.768 556.287 181.423 557.665 181.423C558.731 181.423 559.572 181.601 560.19 181.956C560.815 182.304 561.291 182.702 561.618 183.149C561.952 183.589 562.211 183.952 562.395 184.236H562.608V176.182H565.123V198H562.694V195.486H562.395C562.211 195.784 561.948 196.161 561.607 196.615C561.266 197.062 560.78 197.464 560.148 197.819C559.515 198.167 558.674 198.341 557.623 198.341ZM557.964 196.082C558.972 196.082 559.824 195.82 560.52 195.294C561.216 194.761 561.746 194.026 562.108 193.089C562.47 192.144 562.651 191.054 562.651 189.818C562.651 188.597 562.474 187.528 562.118 186.612C561.763 185.688 561.238 184.971 560.542 184.46C559.846 183.941 558.986 183.682 557.964 183.682C556.898 183.682 556.01 183.955 555.3 184.502C554.597 185.042 554.068 185.777 553.713 186.707C553.365 187.631 553.191 188.668 553.191 189.818C553.191 190.983 553.368 192.041 553.724 192.993C554.086 193.937 554.618 194.69 555.322 195.251C556.032 195.805 556.912 196.082 557.964 196.082ZM576.724 198.341C575.247 198.341 573.951 197.989 572.836 197.286C571.728 196.583 570.861 195.599 570.236 194.335C569.618 193.071 569.309 191.594 569.309 189.903C569.309 188.199 569.618 186.711 570.236 185.44C570.861 184.168 571.728 183.181 572.836 182.478C573.951 181.775 575.247 181.423 576.724 181.423C578.202 181.423 579.494 181.775 580.602 182.478C581.717 183.181 582.584 184.168 583.202 185.44C583.827 186.711 584.139 188.199 584.139 189.903C584.139 191.594 583.827 193.071 583.202 194.335C582.584 195.599 581.717 196.583 580.602 197.286C579.494 197.989 578.202 198.341 576.724 198.341ZM576.724 196.082C577.846 196.082 578.77 195.795 579.494 195.219C580.219 194.644 580.755 193.888 581.103 192.95C581.451 192.013 581.625 190.997 581.625 189.903C581.625 188.81 581.451 187.79 581.103 186.846C580.755 185.901 580.219 185.138 579.494 184.555C578.77 183.973 577.846 183.682 576.724 183.682C575.602 183.682 574.679 183.973 573.954 184.555C573.23 185.138 572.694 185.901 572.346 186.846C571.998 187.79 571.824 188.81 571.824 189.903C571.824 190.997 571.998 192.013 572.346 192.95C572.694 193.888 573.23 194.644 573.954 195.219C574.679 195.795 575.602 196.082 576.724 196.082ZM591.727 195.017L591.556 196.168C591.436 196.977 591.251 197.844 591.002 198.767C590.761 199.69 590.509 200.56 590.246 201.377C589.983 202.194 589.767 202.844 589.596 203.327H587.679C587.771 202.872 587.892 202.272 588.041 201.526C588.19 200.781 588.339 199.946 588.488 199.023C588.645 198.107 588.772 197.169 588.872 196.21L589 195.017H591.727ZM617.095 181.636C616.968 180.557 616.449 179.719 615.54 179.122C614.631 178.526 613.516 178.227 612.195 178.227C611.229 178.227 610.384 178.384 609.659 178.696C608.942 179.009 608.381 179.438 607.976 179.985C607.578 180.532 607.379 181.153 607.379 181.849C607.379 182.432 607.518 182.933 607.795 183.352C608.079 183.763 608.441 184.108 608.882 184.385C609.322 184.655 609.784 184.879 610.267 185.056C610.749 185.227 611.193 185.365 611.598 185.472L613.814 186.068C614.382 186.217 615.014 186.423 615.71 186.686C616.414 186.949 617.085 187.308 617.724 187.762C618.37 188.21 618.903 188.785 619.322 189.488C619.741 190.191 619.95 191.054 619.95 192.077C619.95 193.256 619.642 194.321 619.024 195.273C618.413 196.224 617.518 196.981 616.339 197.542C615.167 198.103 613.743 198.384 612.067 198.384C610.504 198.384 609.151 198.131 608.008 197.627C606.872 197.123 605.977 196.42 605.323 195.518C604.677 194.616 604.311 193.568 604.226 192.375H606.953C607.024 193.199 607.301 193.881 607.784 194.42C608.274 194.953 608.892 195.351 609.638 195.614C610.391 195.869 611.2 195.997 612.067 195.997C613.075 195.997 613.981 195.834 614.784 195.507C615.586 195.173 616.222 194.712 616.691 194.122C617.159 193.526 617.394 192.83 617.394 192.034C617.394 191.31 617.191 190.72 616.786 190.266C616.382 189.811 615.849 189.442 615.188 189.158C614.528 188.874 613.814 188.625 613.047 188.412L610.362 187.645C608.658 187.155 607.308 186.455 606.314 185.546C605.32 184.637 604.823 183.447 604.823 181.977C604.823 180.756 605.153 179.69 605.813 178.781C606.481 177.865 607.376 177.155 608.498 176.651C609.627 176.139 610.888 175.884 612.28 175.884C613.686 175.884 614.936 176.136 616.03 176.64C617.124 177.137 617.99 177.819 618.629 178.685C619.276 179.552 619.617 180.536 619.652 181.636H617.095ZM630.814 198.341C629.238 198.341 627.877 197.993 626.734 197.297C625.598 196.594 624.721 195.614 624.103 194.357C623.492 193.092 623.186 191.622 623.186 189.946C623.186 188.27 623.492 186.793 624.103 185.514C624.721 184.229 625.58 183.227 626.681 182.51C627.789 181.786 629.081 181.423 630.559 181.423C631.411 181.423 632.252 181.565 633.083 181.849C633.914 182.134 634.671 182.595 635.353 183.234C636.034 183.866 636.578 184.705 636.983 185.749C637.387 186.793 637.59 188.078 637.59 189.605V190.67H624.976V188.497H635.033C635.033 187.574 634.848 186.75 634.479 186.026C634.117 185.301 633.598 184.729 632.924 184.31C632.256 183.891 631.468 183.682 630.559 183.682C629.557 183.682 628.691 183.93 627.959 184.428C627.235 184.918 626.677 185.557 626.287 186.345C625.896 187.134 625.701 187.979 625.701 188.881V190.33C625.701 191.565 625.914 192.613 626.34 193.472C626.773 194.325 627.373 194.974 628.14 195.422C628.907 195.862 629.799 196.082 630.814 196.082C631.475 196.082 632.071 195.99 632.604 195.805C633.144 195.614 633.609 195.33 634 194.953C634.39 194.57 634.692 194.094 634.905 193.526L637.334 194.207C637.078 195.031 636.649 195.756 636.045 196.381C635.441 196.999 634.696 197.482 633.808 197.83C632.92 198.17 631.922 198.341 630.814 198.341ZM651.727 191.31V181.636H654.241V198H651.727V195.23H651.556C651.173 196.061 650.576 196.768 649.767 197.35C648.957 197.925 647.934 198.213 646.699 198.213C645.676 198.213 644.767 197.989 643.971 197.542C643.176 197.087 642.551 196.406 642.096 195.496C641.642 194.58 641.414 193.426 641.414 192.034V181.636H643.929V191.864C643.929 193.057 644.262 194.009 644.93 194.719C645.605 195.429 646.464 195.784 647.508 195.784C648.133 195.784 648.769 195.624 649.415 195.305C650.069 194.985 650.615 194.495 651.056 193.835C651.503 193.174 651.727 192.332 651.727 191.31ZM682.539 183C682.305 182.283 681.996 181.64 681.612 181.072C681.236 180.496 680.785 180.006 680.259 179.602C679.741 179.197 679.151 178.888 678.491 178.675C677.83 178.462 677.106 178.355 676.318 178.355C675.025 178.355 673.85 178.689 672.791 179.357C671.733 180.024 670.892 181.008 670.267 182.308C669.642 183.607 669.329 185.202 669.329 187.091C669.329 188.98 669.645 190.575 670.277 191.874C670.909 193.174 671.765 194.158 672.845 194.825C673.924 195.493 675.139 195.827 676.488 195.827C677.738 195.827 678.839 195.56 679.791 195.028C680.749 194.488 681.495 193.728 682.028 192.748C682.568 191.761 682.838 190.599 682.838 189.264L683.647 189.435H677.085V187.091H685.394V189.435C685.394 191.232 685.011 192.794 684.244 194.122C683.484 195.45 682.433 196.48 681.09 197.212C679.755 197.936 678.221 198.298 676.488 198.298C674.556 198.298 672.859 197.844 671.396 196.935C669.94 196.026 668.803 194.733 667.987 193.057C667.177 191.381 666.772 189.392 666.772 187.091C666.772 185.365 667.003 183.813 667.465 182.435C667.933 181.05 668.594 179.871 669.446 178.898C670.298 177.925 671.307 177.18 672.472 176.661C673.637 176.143 674.919 175.884 676.318 175.884C677.468 175.884 678.541 176.058 679.535 176.406C680.536 176.746 681.428 177.233 682.209 177.865C682.997 178.49 683.654 179.239 684.18 180.113C684.705 180.979 685.068 181.942 685.267 183H682.539ZM699.891 191.31V181.636H702.405V198H699.891V195.23H699.721C699.337 196.061 698.74 196.768 697.931 197.35C697.121 197.925 696.098 198.213 694.863 198.213C693.84 198.213 692.931 197.989 692.135 197.542C691.34 197.087 690.715 196.406 690.26 195.496C689.806 194.58 689.578 193.426 689.578 192.034V181.636H692.093V191.864C692.093 193.057 692.426 194.009 693.094 194.719C693.769 195.429 694.628 195.784 695.672 195.784C696.297 195.784 696.933 195.624 697.579 195.305C698.233 194.985 698.779 194.495 699.22 193.835C699.667 193.174 699.891 192.332 699.891 191.31ZM707.01 198V181.636H709.524V198H707.01ZM708.289 178.909C707.798 178.909 707.376 178.742 707.021 178.408C706.673 178.075 706.499 177.673 706.499 177.205C706.499 176.736 706.673 176.335 707.021 176.001C707.376 175.667 707.798 175.5 708.289 175.5C708.779 175.5 709.198 175.667 709.546 176.001C709.901 176.335 710.078 176.736 710.078 177.205C710.078 177.673 709.901 178.075 709.546 178.408C709.198 178.742 708.779 178.909 708.289 178.909ZM718.945 198.384C717.908 198.384 716.967 198.188 716.121 197.798C715.276 197.4 714.605 196.828 714.108 196.082C713.611 195.33 713.362 194.42 713.362 193.355C713.362 192.418 713.547 191.658 713.916 191.075C714.286 190.486 714.779 190.024 715.397 189.69C716.015 189.357 716.697 189.108 717.442 188.945C718.195 188.774 718.952 188.639 719.712 188.54C720.706 188.412 721.512 188.316 722.13 188.252C722.755 188.181 723.21 188.064 723.494 187.901C723.785 187.737 723.93 187.453 723.93 187.048V186.963C723.93 185.912 723.643 185.095 723.067 184.513C722.499 183.93 721.636 183.639 720.479 183.639C719.278 183.639 718.337 183.902 717.656 184.428C716.974 184.953 716.494 185.514 716.217 186.111L713.831 185.259C714.257 184.264 714.825 183.49 715.536 182.936C716.253 182.375 717.034 181.984 717.879 181.764C718.732 181.537 719.57 181.423 720.393 181.423C720.919 181.423 721.523 181.487 722.205 181.615C722.893 181.736 723.558 181.988 724.197 182.371C724.843 182.755 725.379 183.334 725.805 184.108C726.232 184.882 726.445 185.919 726.445 187.219V198H723.93V195.784H723.803C723.632 196.139 723.348 196.519 722.95 196.924C722.553 197.329 722.023 197.673 721.363 197.957C720.702 198.241 719.896 198.384 718.945 198.384ZM719.328 196.125C720.322 196.125 721.161 195.93 721.842 195.539C722.531 195.148 723.05 194.644 723.398 194.026C723.753 193.408 723.93 192.759 723.93 192.077V189.776C723.824 189.903 723.589 190.021 723.227 190.127C722.872 190.227 722.46 190.315 721.991 190.393C721.53 190.464 721.079 190.528 720.638 190.585C720.205 190.635 719.854 190.678 719.584 190.713C718.93 190.798 718.32 190.937 717.751 191.129C717.19 191.313 716.736 191.594 716.388 191.97C716.047 192.339 715.876 192.844 715.876 193.483C715.876 194.357 716.2 195.017 716.846 195.464C717.499 195.905 718.327 196.125 719.328 196.125ZM757.369 183H754.727C754.57 182.24 754.297 181.572 753.906 180.997C753.523 180.422 753.054 179.939 752.5 179.548C751.953 179.151 751.346 178.852 750.678 178.653C750.011 178.455 749.315 178.355 748.59 178.355C747.269 178.355 746.073 178.689 745 179.357C743.935 180.024 743.086 181.008 742.454 182.308C741.829 183.607 741.517 185.202 741.517 187.091C741.517 188.98 741.829 190.575 742.454 191.874C743.086 193.174 743.935 194.158 745 194.825C746.073 195.493 747.269 195.827 748.59 195.827C749.315 195.827 750.011 195.727 750.678 195.528C751.346 195.33 751.953 195.035 752.5 194.644C753.054 194.246 753.523 193.76 753.906 193.185C754.297 192.602 754.57 191.935 754.727 191.182H757.369C757.17 192.297 756.808 193.295 756.282 194.175C755.757 195.056 755.103 195.805 754.322 196.423C753.541 197.034 752.664 197.499 751.691 197.819C750.725 198.138 749.691 198.298 748.59 198.298C746.73 198.298 745.075 197.844 743.626 196.935C742.177 196.026 741.037 194.733 740.206 193.057C739.375 191.381 738.96 189.392 738.96 187.091C738.96 184.79 739.375 182.801 740.206 181.125C741.037 179.449 742.177 178.156 743.626 177.247C745.075 176.338 746.73 175.884 748.59 175.884C749.691 175.884 750.725 176.043 751.691 176.363C752.664 176.683 753.541 177.151 754.322 177.769C755.103 178.38 755.757 179.126 756.282 180.006C756.808 180.88 757.17 181.878 757.369 183ZM767.945 198.341C766.468 198.341 765.172 197.989 764.056 197.286C762.949 196.583 762.082 195.599 761.457 194.335C760.839 193.071 760.53 191.594 760.53 189.903C760.53 188.199 760.839 186.711 761.457 185.44C762.082 184.168 762.949 183.181 764.056 182.478C765.172 181.775 766.468 181.423 767.945 181.423C769.422 181.423 770.715 181.775 771.823 182.478C772.938 183.181 773.804 184.168 774.422 185.44C775.047 186.711 775.36 188.199 775.36 189.903C775.36 191.594 775.047 193.071 774.422 194.335C773.804 195.599 772.938 196.583 771.823 197.286C770.715 197.989 769.422 198.341 767.945 198.341ZM767.945 196.082C769.067 196.082 769.99 195.795 770.715 195.219C771.439 194.644 771.975 193.888 772.324 192.95C772.672 192.013 772.846 190.997 772.846 189.903C772.846 188.81 772.672 187.79 772.324 186.846C771.975 185.901 771.439 185.138 770.715 184.555C769.99 183.973 769.067 183.682 767.945 183.682C766.823 183.682 765.9 183.973 765.175 184.555C764.451 185.138 763.914 185.901 763.566 186.846C763.218 187.79 763.044 188.81 763.044 189.903C763.044 190.997 763.218 192.013 763.566 192.95C763.914 193.888 764.451 194.644 765.175 195.219C765.9 195.795 766.823 196.082 767.945 196.082ZM779.198 198V181.636H781.627V184.193H781.84C782.181 183.32 782.731 182.641 783.491 182.158C784.251 181.668 785.164 181.423 786.229 181.423C787.308 181.423 788.207 181.668 788.924 182.158C789.649 182.641 790.213 183.32 790.618 184.193H790.789C791.208 183.348 791.836 182.677 792.674 182.18C793.512 181.675 794.517 181.423 795.689 181.423C797.152 181.423 798.349 181.881 799.279 182.798C800.21 183.707 800.675 185.124 800.675 187.048V198H798.161V187.048C798.161 185.841 797.83 184.978 797.17 184.46C796.509 183.941 795.732 183.682 794.837 183.682C793.686 183.682 792.795 184.03 792.163 184.726C791.531 185.415 791.215 186.288 791.215 187.347V198H788.658V186.793C788.658 185.862 788.356 185.113 787.752 184.545C787.149 183.969 786.371 183.682 785.419 183.682C784.766 183.682 784.155 183.856 783.587 184.204C783.026 184.552 782.571 185.035 782.223 185.653C781.882 186.263 781.712 186.97 781.712 187.773V198H779.198ZM805.272 204.136V181.636H807.701V184.236H807.999C808.184 183.952 808.439 183.589 808.766 183.149C809.1 182.702 809.576 182.304 810.194 181.956C810.819 181.601 811.664 181.423 812.729 181.423C814.107 181.423 815.322 181.768 816.373 182.457C817.424 183.146 818.244 184.122 818.834 185.386C819.423 186.651 819.718 188.142 819.718 189.861C819.718 191.594 819.423 193.096 818.834 194.367C818.244 195.631 817.427 196.612 816.383 197.308C815.339 197.996 814.135 198.341 812.772 198.341C811.721 198.341 810.879 198.167 810.247 197.819C809.615 197.464 809.128 197.062 808.787 196.615C808.447 196.161 808.184 195.784 807.999 195.486H807.786V204.136H805.272ZM807.743 189.818C807.743 191.054 807.925 192.144 808.287 193.089C808.649 194.026 809.178 194.761 809.874 195.294C810.57 195.82 811.422 196.082 812.431 196.082C813.482 196.082 814.359 195.805 815.062 195.251C815.773 194.69 816.305 193.937 816.66 192.993C817.023 192.041 817.204 190.983 817.204 189.818C817.204 188.668 817.026 187.631 816.671 186.707C816.323 185.777 815.794 185.042 815.084 184.502C814.381 183.955 813.496 183.682 812.431 183.682C811.408 183.682 810.549 183.941 809.853 184.46C809.157 184.971 808.631 185.688 808.276 186.612C807.921 187.528 807.743 188.597 807.743 189.818ZM826.067 176.182V198H823.553V176.182H826.067ZM837.533 198.341C835.956 198.341 834.596 197.993 833.453 197.297C832.316 196.594 831.439 195.614 830.821 194.357C830.211 193.092 829.905 191.622 829.905 189.946C829.905 188.27 830.211 186.793 830.821 185.514C831.439 184.229 832.299 183.227 833.4 182.51C834.507 181.786 835.8 181.423 837.277 181.423C838.13 181.423 838.971 181.565 839.802 181.849C840.633 182.134 841.39 182.595 842.071 183.234C842.753 183.866 843.297 184.705 843.701 185.749C844.106 186.793 844.309 188.078 844.309 189.605V190.67H831.695V188.497H841.752C841.752 187.574 841.567 186.75 841.198 186.026C840.836 185.301 840.317 184.729 839.642 184.31C838.975 183.891 838.186 183.682 837.277 183.682C836.276 183.682 835.409 183.93 834.678 184.428C833.953 184.918 833.396 185.557 833.005 186.345C832.615 187.134 832.419 187.979 832.419 188.881V190.33C832.419 191.565 832.632 192.613 833.059 193.472C833.492 194.325 834.092 194.974 834.859 195.422C835.626 195.862 836.517 196.082 837.533 196.082C838.194 196.082 838.79 195.99 839.323 195.805C839.863 195.614 840.328 195.33 840.718 194.953C841.109 194.57 841.411 194.094 841.624 193.526L844.053 194.207C843.797 195.031 843.368 195.756 842.764 196.381C842.16 196.999 841.414 197.482 840.527 197.83C839.639 198.17 838.641 198.341 837.533 198.341ZM855.25 181.636V183.767H846.77V181.636H855.25ZM849.241 177.716H851.755V193.312C851.755 194.023 851.858 194.555 852.064 194.911C852.277 195.259 852.547 195.493 852.874 195.614C853.208 195.727 853.559 195.784 853.929 195.784C854.206 195.784 854.433 195.77 854.61 195.741C854.788 195.706 854.93 195.678 855.037 195.656L855.548 197.915C855.377 197.979 855.14 198.043 854.834 198.107C854.529 198.178 854.142 198.213 853.673 198.213C852.963 198.213 852.267 198.06 851.585 197.755C850.91 197.45 850.349 196.984 849.902 196.359C849.461 195.734 849.241 194.946 849.241 193.994V177.716ZM865.504 198.341C864.026 198.341 862.73 197.989 861.615 197.286C860.507 196.583 859.641 195.599 859.016 194.335C858.398 193.071 858.089 191.594 858.089 189.903C858.089 188.199 858.398 186.711 859.016 185.44C859.641 184.168 860.507 183.181 861.615 182.478C862.73 181.775 864.026 181.423 865.504 181.423C866.981 181.423 868.273 181.775 869.381 182.478C870.496 183.181 871.363 184.168 871.981 185.44C872.606 186.711 872.918 188.199 872.918 189.903C872.918 191.594 872.606 193.071 871.981 194.335C871.363 195.599 870.496 196.583 869.381 197.286C868.273 197.989 866.981 198.341 865.504 198.341ZM865.504 196.082C866.626 196.082 867.549 195.795 868.273 195.219C868.998 194.644 869.534 193.888 869.882 192.95C870.23 192.013 870.404 190.997 870.404 189.903C870.404 188.81 870.23 187.79 869.882 186.846C869.534 185.901 868.998 185.138 868.273 184.555C867.549 183.973 866.626 183.682 865.504 183.682C864.381 183.682 863.458 183.973 862.734 184.555C862.009 185.138 861.473 185.901 861.125 186.846C860.777 187.79 860.603 188.81 860.603 189.903C860.603 190.997 860.777 192.013 861.125 192.95C861.473 193.888 862.009 194.644 862.734 195.219C863.458 195.795 864.381 196.082 865.504 196.082Z" fill="white" fill-opacity="0.99"/>
<defs>
<filter id="filter0_d_63_39" x="62" y="32" width="257" height="258" filterUnits="userSpaceOnUse" color-interpolation-filters="sRGB">
<feFlood flood-opacity="0" result="BackgroundImageFix"/>
<feColorMatrix in="SourceAlpha" type="matrix" values="0 0 0 0 0 0 0 0 0 0 0 0 0 0 0 0 0 0 127 0" result="hardAlpha"/>
<feOffset dx="4" dy="4"/>
<feGaussianBlur stdDeviation="2"/>
<feComposite in2="hardAlpha" operator="out"/>
<feColorMatrix type="matrix" values="0 0 0 0 0 0 0 0 0 0 0 0 0 0 0 0 0 0 0.25 0"/>
<feBlend mode="normal" in2="BackgroundImageFix" result="effect1_dropShadow_63_39"/>
<feBlend mode="normal" in="SourceGraphic" in2="effect1_dropShadow_63_39" result="shape"/>
</filter>
<filter id="filter1_d_63_39" x="333.01" y="106.62" width="182.618" height="52.59" filterUnits="userSpaceOnUse" color-interpolation-filters="sRGB">
<feFlood flood-opacity="0" result="BackgroundImageFix"/>
<feColorMatrix in="SourceAlpha" type="matrix" values="0 0 0 0 0 0 0 0 0 0 0 0 0 0 0 0 0 0 127 0" result="hardAlpha"/>
<feOffset dy="4"/>
<feGaussianBlur stdDeviation="2"/>
<feComposite in2="hardAlpha" operator="out"/>
<feColorMatrix type="matrix" values="0 0 0 0 0 0 0 0 0 0 0 0 0 0 0 0 0 0 0.25 0"/>
<feBlend mode="normal" in2="BackgroundImageFix" result="effect1_dropShadow_63_39"/>
<feBlend mode="normal" in="SourceGraphic" in2="effect1_dropShadow_63_39" result="shape"/>
</filter>
<filter id="filter2_d_63_39" x="681.63" y="109.48" width="209.719" height="53.22" filterUnits="userSpaceOnUse" color-interpolation-filters="sRGB">
<feFlood flood-opacity="0" result="BackgroundImageFix"/>
<feColorMatrix in="SourceAlpha" type="matrix" values="0 0 0 0 0 0 0 0 0 0 0 0 0 0 0 0 0 0 127 0" result="hardAlpha"/>
<feOffset dy="4"/>
<feGaussianBlur stdDeviation="2"/>
<feComposite in2="hardAlpha" operator="out"/>
<feColorMatrix type="matrix" values="0 0 0 0 0 0 0 0 0 0 0 0 0 0 0 0 0 0 0.25 0"/>
<feBlend mode="normal" in2="BackgroundImageFix" result="effect1_dropShadow_63_39"/>
<feBlend mode="normal" in="SourceGraphic" in2="effect1_dropShadow_63_39" result="shape"/>
</filter>
<filter id="filter3_d_63_39" x="526.94" y="108.41" width="148.635" height="52.94" filterUnits="userSpaceOnUse" color-interpolation-filters="sRGB">
<feFlood flood-opacity="0" result="BackgroundImageFix"/>
<feColorMatrix in="SourceAlpha" type="matrix" values="0 0 0 0 0 0 0 0 0 0 0 0 0 0 0 0 0 0 127 0" result="hardAlpha"/>
<feOffset dy="4"/>
<feGaussianBlur stdDeviation="2"/>
<feComposite in2="hardAlpha" operator="out"/>
<feColorMatrix type="matrix" values="0 0 0 0 0 0 0 0 0 0 0 0 0 0 0 0 0 0 0.25 0"/>
<feBlend mode="normal" in2="BackgroundImageFix" result="effect1_dropShadow_63_39"/>
<feBlend mode="normal" in="SourceGraphic" in2="effect1_dropShadow_63_39" result="shape"/>
</filter>
</defs>
</svg>
